<?xml version="1.0" encoding="UTF-8"?><svg id="d" xmlns="http://www.w3.org/2000/svg" xmlns:xlink="http://www.w3.org/1999/xlink" viewBox="0 0 41 41"><defs><style>.f{fill:url(#e);}.g{fill:#042d47;}.h{fill:#fff;}</style><linearGradient id="e" x1="20.5" y1="32.72" x2="20.5" y2="8.12" gradientUnits="userSpaceOnUse"><stop offset=".01" stop-color="#b7cee0"/><stop offset=".27" stop-color="#85b0d4"/><stop offset=".47" stop-color="#548abb"/><stop offset=".57" stop-color="#407ab1"/><stop offset=".59" stop-color="#3d77ad"/><stop offset=".78" stop-color="#23537b"/><stop offset=".92" stop-color="#133e5d"/><stop offset="1" stop-color="#0d3652"/></linearGradient></defs><circle class="g" cx="20.5" cy="20.5" r="20.5"/><g><path class="h" d="M20.5,6.76s-.03,0-.04,0c-2.48,0-4.49,.84-4.49,1.87,0,.3,.19,.58,.49,.84v5.59c-1.48,.66-2.78,1.66-3.78,2.92-.28,.32-.52,.65-.69,.98,0,0,0,.01-.01,.02-.09,.15-.19,.29-.27,.44-.08,.1-.17,.21-.3,.31-.91,.71-1.91,.05-2.88,.39-1.3,.45-1.99,2.52-1.88,4.09,.17,2.38,2.2,3.64,3.65,4.55,.72,.45,1.28,.64,1.69,.71,1.76,2.84,4.89,4.74,8.47,4.76,.01,0,.02,0,.03,0,0,0,0,0,0,0,0,0,0,0,0,0m-9.67-7c-.97,.14-1.95-1.09-2.2-2.76-.25-1.67,.34-3.13,1.3-3.28,.32-.05,.64,.07,.94,.29-.25,.87-.39,1.78-.39,2.73,0,1.04,.16,2.04,.45,2.99-.04,.01-.07,.03-.11,.03Zm9.67,7s0,0,0,0c0,0,0,0,0,0,.01,0,.02,0,.03,0,3.58-.02,6.71-1.92,8.47-4.76,.41-.06,.97-.26,1.69-.71,1.45-.91,3.48-2.17,3.65-4.55,.11-1.57-.58-3.64-1.88-4.09-.97-.34-1.97,.32-2.88-.39-.13-.1-.22-.21-.3-.31-.08-.15-.18-.3-.27-.44,0,0,0-.02-.01-.02-.17-.34-.41-.67-.69-.98-1-1.25-2.29-2.26-3.78-2.92v-5.59c.31-.25,.49-.53,.49-.84,0-1.03-2.01-1.87-4.49-1.87-.01,0-.03,0-.04,0m11.87,17.72c-.25,1.67-1.23,2.9-2.2,2.76-.04,0-.07-.02-.11-.03,.29-.94,.45-1.95,.45-2.99,0-.95-.14-1.86-.39-2.73,.3-.22,.62-.34,.94-.29,.97,.14,1.55,1.61,1.3,3.28Z"/><path class="f" d="M28.03,19.23c-.12-.19-.27-.39-.46-.61-.91-1.14-2.09-2.06-3.42-2.64l-.6-.26v-6.74c-.44-.27-1.5-.84-2.97-.85-1.56-.01-2.68,.61-3.12,.89v6.71l-.59,.26c-1.32,.58-2.5,1.49-3.44,2.67-.24,.27-.42,.53-.54,.76l-.03,.05-.11,.17c-.06,.09-.11,.18-.17,.27l-.04,.07-.05,.06-.48,1.07-.19,.66c-.16,.68-.3,1.51-.35,2.46-.04,.8,0,1.52,.06,2.14,.23,.78,1.24,3.79,4.32,5.6,1.88,1.1,3.69,1.27,4.63,1.28h0c.91,0,2.3-.13,3.8-.84,3.32-1.56,4.54-4.72,4.81-5.49,.27-.87,.41-1.77,.41-2.69,0-.81-.12-1.64-.35-2.46l-.7-1.77-.04-.07c-.05-.1-.11-.19-.17-.28l-.07-.11"/></g></svg>